# Blender v2.80 (sub 75) OBJ File: ''
# www.blender.org
mtllib Cheek.mtl
o Cheek_Plane_Plane.002
v -0.048125 -0.017812 0.000124
v -0.033798 -0.015015 0.006058
v -0.033798 0.014228 -0.007727
v -0.048125 0.011430 -0.013661
v 0.033798 -0.015015 0.006058
v 0.033798 0.014228 -0.007727
v 0.018532 0.016584 -0.002729
v 0.018532 -0.012658 0.011056
v 0.000000 0.017864 -0.000013
v 0.000000 -0.011378 0.013772
v -0.018532 0.016584 -0.002729
v -0.018532 -0.012658 0.011056
v 0.048125 -0.017812 0.000124
v 0.048125 0.011430 -0.013661
vt 0.000000 0.000000
vt 0.150978 0.000000
vt 0.150978 1.000000
vt 0.000000 1.000000
vt 0.849022 0.000000
vt 0.849022 1.000000
vt 0.696605 1.000000
vt 0.696605 0.000000
vt 0.500000 1.000000
vt 0.500000 0.000000
vt 0.303395 1.000000
vt 0.303395 0.000000
vt 1.000000 0.000000
vt 1.000000 1.000000
vn -0.4163 0.3877 0.8224
vn -0.3787 0.3946 0.8372
vn 0.3787 0.3946 0.8372
vn 0.2512 0.4127 0.8755
vn 0.0000 0.4264 0.9045
vn -0.2512 0.4127 0.8755
vn 0.4163 0.3877 0.8224
usemtl None
s 1
f 1/1/1 2/2/2 3/3/2 4/4/1
f 5/5/3 6/6/3 7/7/4 8/8/4
f 8/8/4 7/7/4 9/9/5 10/10/5
f 10/10/5 9/9/5 11/11/6 12/12/6
f 12/12/6 11/11/6 3/3/2 2/2/2
f 5/5/3 13/13/7 14/14/7 6/6/3
