# Blender v2.80 (sub 75) OBJ File: 'RINDO.blend'
# www.blender.org
mtllib Heart.mtl
o Circle
v -0.117707 0.043327 -0.000000
v -0.115445 0.020363 -0.000000
v -0.108747 -0.001718 -0.000000
v -0.097870 -0.022068 -0.000000
v -0.083231 -0.039904 -0.000000
v 0.083231 -0.039904 -0.000000
v 0.097870 -0.022068 -0.000000
v 0.108747 -0.001718 -0.000000
v 0.115445 0.020363 -0.000000
v 0.117707 0.043327 -0.000000
v -0.173855 0.037672 -0.000000
v -0.169843 0.009377 -0.000000
v -0.157959 -0.017832 -0.000000
v -0.138662 -0.042907 -0.000000
v -0.112691 -0.064886 -0.000000
v 0.112691 -0.064886 -0.000000
v 0.138662 -0.042907 -0.000000
v 0.157959 -0.017832 -0.000000
v 0.169843 0.009377 -0.000000
v 0.173855 0.037672 -0.000000
vt 0.000000 0.000000
vt 0.000000 0.000000
vt 0.000000 0.000000
vt 0.000000 0.000000
vt 0.000000 0.000000
vt 0.000000 0.000000
vt 0.000000 0.000000
vt 0.000000 0.000000
vt 0.000000 0.000000
vt 0.000000 0.000000
vt 0.000000 0.000000
vt 0.000000 0.000000
vt 0.000000 0.000000
vt 0.000000 0.000000
vt 0.000000 0.000000
vt 0.000000 0.000000
vt 0.000000 0.000000
vt 0.000000 0.000000
vt 0.000000 0.000000
vt 0.000000 0.000000
vn 0.0000 0.0000 1.0000
usemtl None
s off
f 10/1/1 9/2/1 19/3/1 20/4/1
f 8/5/1 7/6/1 17/7/1 18/8/1
f 5/9/1 4/10/1 14/11/1 15/12/1
f 3/13/1 2/14/1 12/15/1 13/16/1
f 9/2/1 8/5/1 18/8/1 19/3/1
f 7/6/1 6/17/1 16/18/1 17/7/1
f 4/10/1 3/13/1 13/16/1 14/11/1
f 2/14/1 1/19/1 11/20/1 12/15/1
